<?xml version="1.0" encoding="utf-8"?>
<!-- Generator: Adobe Illustrator 16.0.0, SVG Export Plug-In . SVG Version: 6.00 Build 0)  -->
<!DOCTYPE svg PUBLIC "-//W3C//DTD SVG 1.1//EN" "http://www.w3.org/Graphics/SVG/1.1/DTD/svg11.dtd">
<svg version="1.1" id="Calque_1" xmlns="http://www.w3.org/2000/svg" xmlns:xlink="http://www.w3.org/1999/xlink" x="0px" y="0px"
	 width="550px" height="150px" viewBox="0 0 550 150" enable-background="new 0 0 550 150" xml:space="preserve">
<path fill="#FFFFFF" d="M532.119,18.946c8.106,0,14.684,6.577,14.684,14.691v84.445c0,8.109-6.577,14.687-14.684,14.687H110.315
	c1.396-3.093,2.205-6.499,2.205-10.107V65.435c0-11.054-7.324-20.431-17.404-23.575c-0.931-8.63-4.387-16.505-9.584-22.914H532.119z
	 M97.837,65.435v57.227c0,5.588-4.52,10.107-10.124,10.107h-72.91c-5.498,0-10.006-4.52-10.006-10.107V65.435
	c0-5.494,4.509-10.01,10.006-10.01h7.054v-8.798c0-16.212,13.193-29.405,29.401-29.405c16.228,0,29.429,13.193,29.429,29.405v8.798
	h7.026C93.317,55.424,97.837,59.941,97.837,65.435z M35.16,55.424h32.22v-8.798c0-8.876-7.214-16.118-16.122-16.118
	c-8.88,0-16.098,7.242-16.098,16.118V55.424z M64.944,94.308c0-7.069-5.756-12.829-12.833-12.829
	c-7.097,0-12.857,5.76-12.857,12.829c0,5.49,3.457,10.104,8.247,11.97v14.612c0,0.63,0.512,1.079,1.044,1.079h7.015
	c0.618,0,1.158-0.449,1.158-1.079v-14.612C61.488,104.412,64.944,99.798,64.944,94.308z"/>
<g opacity="0.7">
	<path fill="#A5ABC6" d="M167.956,84.114l3.179-4.7l-4.986-1.588l0.938-3.034l5.06,1.951l-0.219-5.346h3.684l-0.215,5.346
		l5.056-1.951l0.942,3.034l-4.986,1.588l3.25,4.7l-2.745,1.806l-3.105-4.841l-3.179,4.841L167.956,84.114z"/>
	<path fill="#A5ABC6" d="M191.796,84.114l3.179-4.7l-4.985-1.588l0.938-3.034l5.06,1.951l-0.219-5.346h3.683l-0.215,5.346
		l5.056-1.951l0.942,3.034l-4.986,1.588l3.25,4.7l-2.745,1.806l-3.104-4.841l-3.179,4.841L191.796,84.114z"/>
	<path fill="#A5ABC6" d="M215.637,84.114l3.179-4.7l-4.985-1.588l0.938-3.034l5.06,1.951l-0.219-5.346h3.683l-0.215,5.346
		l5.056-1.951l0.942,3.034l-4.985,1.588l3.25,4.7l-2.745,1.806l-3.105-4.841l-3.179,4.841L215.637,84.114z"/>
	<path fill="#A5ABC6" d="M239.474,84.114l3.179-4.7l-4.986-1.588l0.938-3.034l5.06,1.951l-0.219-5.346h3.684l-0.215,5.346
		l5.056-1.951l0.942,3.034l-4.985,1.588l3.249,4.7l-2.745,1.806l-3.105-4.841l-3.179,4.841L239.474,84.114z"/>
	<path fill="#A5ABC6" d="M263.314,84.114l3.179-4.7l-4.985-1.588l0.938-3.034l5.06,1.951l-0.219-5.346h3.684l-0.215,5.346
		l5.056-1.951l0.942,3.034l-4.985,1.588l3.249,4.7l-2.745,1.806l-3.104-4.841l-3.179,4.841L263.314,84.114z"/>
	<path fill="#A5ABC6" d="M287.155,84.114l3.179-4.7l-4.985-1.588l0.938-3.034l5.06,1.951l-0.219-5.346h3.684l-0.215,5.346
		l5.056-1.951l0.942,3.034l-4.985,1.588l3.249,4.7l-2.745,1.806l-3.104-4.841l-3.179,4.841L287.155,84.114z"/>
	<path fill="#A5ABC6" d="M310.996,84.114l3.179-4.7l-4.985-1.588l0.938-3.034l5.06,1.951l-0.219-5.346h3.684l-0.215,5.346
		l5.056-1.951l0.942,3.034l-4.986,1.588l3.25,4.7l-2.745,1.806l-3.104-4.841l-3.18,4.841L310.996,84.114z"/>
	<path fill="#A5ABC6" d="M334.837,84.114l3.179-4.7l-4.985-1.588l0.938-3.034l5.06,1.951l-0.219-5.346h3.684l-0.216,5.346
		l5.057-1.951l0.942,3.034l-4.986,1.588l3.25,4.7l-2.745,1.806l-3.104-4.841l-3.18,4.841L334.837,84.114z"/>
	<path fill="#A5ABC6" d="M358.674,84.114l3.179-4.7l-4.985-1.588l0.938-3.034l5.061,1.951l-0.219-5.346h3.684l-0.216,5.346
		l5.056-1.951l0.943,3.034l-4.986,1.588l3.25,4.7l-2.745,1.806l-3.104-4.841l-3.18,4.841L358.674,84.114z"/>
</g>
</svg>
